<svg width="1080" height="1080" viewBox="0 0 1080 1080" fill="none" xmlns="http://www.w3.org/2000/svg">
<rect width="1080" height="1080" fill="#F5F5F5"/>
<g clip-path="url(#clip0_2_59)">
<rect width="1080" height="1080" fill="url(#paint0_radial_2_59)"/>
<g opacity="0.4">
<path d="M960.214 807.8C918.928 799.299 883.726 822.288 887.973 863.373C890.152 906.697 910.821 945.587 935.603 964.999C942.825 969.164 953.773 968.331 961.009 962.619C968.365 969.975 984.527 971.507 995.192 960.834C1004.76 966.509 1021.2 970.339 1034.7 958.462C1044.06 963.69 1049.46 959.317 1054.68 956.268C1087.3 924.16 1122.72 778.266 1022.14 806.209C1022.14 806.209 1003.43 813.743 993.556 814.152C982.251 814.628 989.971 813.929 960.214 807.8Z" fill="#FFCA6C" stroke="#7A3D2E" stroke-linecap="round" stroke-linejoin="round"/>
<path d="M960.823 808.09C908.129 833.184 941.144 941.103 960.258 963.036M1025.38 805.844C1073.58 828.64 1046.24 932.951 1034.92 959.666M995.066 814.821C1010.86 866.222 1002.91 938.923 996.189 961.347M969.741 808.99C969.741 808.99 975.75 777.195 982.043 773.662C986.78 770.992 995.467 770.3 1000.7 773.662C1010.37 779.858 1016.9 806.647 1016.9 806.647C1016.9 806.647 997.981 820.831 969.741 808.99Z" stroke="#7A3D2E" stroke-linecap="round" stroke-linejoin="round"/>
</g>
<path opacity="0.2" fill-rule="evenodd" clip-rule="evenodd" d="M778.045 -37.6695C1191.7 -107.518 1533.14 168.307 946.951 96.9008C1520.72 236.905 1099.87 373.281 741.598 163.745C906.391 374.444 144.09 234.994 372.011 96.8652C-41.6458 166.715 -383.349 -107.651 203.101 -37.7046C-375.614 -177.096 45.2476 -313.471 408.458 -104.549C238.719 -314.636 1005.96 -175.798 778.045 -37.6695ZM577.439 2.90328C624.226 11.3698 664.216 30.6648 661.575 45.2598C658.933 59.8548 614.454 65.3727 567.667 56.9062C520.886 48.4409 485.834 28.531 488.475 13.9361C491.116 -0.658902 530.659 -5.56207 577.439 2.90328Z" fill="#FFCA6C"/>
<rect width="558" height="764" transform="translate(255)" fill="url(#paint1_radial_2_59)"/>
<path d="M503.873 54.9661C508.111 52.8468 512.703 52.4935 517.295 53.0822C519.532 53.3177 521.769 54.1419 524.006 54.6129C524.477 54.7306 525.302 54.4952 525.419 54.2597C526.597 51.4339 530.129 50.6097 533.073 52.1403C535.663 53.4355 537.311 55.6726 537.547 58.6161C537.782 60.971 536.723 62.7371 534.603 64.0322C535.781 66.5048 536.958 68.8597 537.9 71.3322C539.195 74.629 540.373 77.9258 540.019 81.5758C539.548 87.5806 536.252 92.0548 531.66 95.5871C519.768 105.006 502.577 103.123 492.805 91.5839C488.448 86.2855 487.389 80.3984 489.861 74.0403C491.039 71.0968 492.334 68.1532 493.629 65.3274C494.1 64.3855 493.982 64.0322 493.158 63.5613C491.274 62.1484 490.685 60.2645 491.274 57.9097C492.334 53.671 495.984 51.0806 499.869 51.7871C501.282 51.7871 501.518 52.0226 503.873 54.9661ZM513.174 98.7661C521.181 98.6484 527.068 96.0581 532.013 91.3484C536.958 86.6387 538.724 80.8693 536.016 74.2758C535.192 72.2742 534.485 70.3903 533.544 68.5064C530.129 61.3242 524.831 56.379 516.471 55.6726C508.229 54.9661 501.282 57.5564 497.044 64.8564C494.924 68.3887 493.394 72.3919 491.863 76.2774C490.568 79.6919 490.921 83.1064 492.687 86.2855C497.397 94.6452 505.05 98.0597 513.174 98.7661Z" fill="black"/>
<path d="M513.174 98.7661C505.05 98.0597 497.397 94.6452 492.805 86.1678C491.039 82.9887 490.685 79.5742 491.981 76.1597C493.511 72.2742 495.042 68.271 497.161 64.7387C501.518 57.4387 508.347 54.8484 516.589 55.5548C524.948 56.2613 530.129 61.2065 533.661 68.3887C534.603 70.2726 535.31 72.2742 536.134 74.1581C538.724 80.7516 537.076 86.521 532.131 91.2307C527.068 96.0581 521.181 98.6484 513.174 98.7661ZM523.653 83.2242C523.418 83.9307 523.182 84.2839 523.065 84.6371C522.123 87.1097 519.65 88.5226 517.06 87.6984C516.235 87.4629 515.294 86.7565 515.058 86.05C514.705 84.9903 514.823 83.8129 516.235 83.1065C516.942 82.871 517.413 82.0468 517.884 81.3403C518.826 79.8097 518.473 78.5145 516.824 77.9258C515.411 77.4548 513.881 77.3371 512.468 77.5726C509.995 78.0436 509.524 79.9274 511.055 81.929C511.408 82.4 511.761 82.871 512.232 82.9887C513.881 83.5774 513.881 84.9903 513.41 86.05C513.174 86.7565 511.997 87.4629 511.055 87.6984C508.582 88.2871 506.11 86.7565 505.285 84.4016C505.168 84.0484 505.05 83.6952 504.815 83.2242C503.048 86.2855 504.344 90.8774 507.405 93.5855C511.173 96.8823 516.706 96.8823 520.827 93.5855C524.006 91.2307 525.419 86.6387 523.653 83.2242ZM502.695 82.4C504.579 82.2823 505.403 81.929 506.227 80.6339C507.64 78.1613 509.053 75.6887 510.466 73.2161C510.702 72.6274 510.937 72.0387 510.937 71.3323C510.702 66.8581 506.227 64.5032 502.342 66.7403C498.456 68.9774 496.337 73.6871 497.279 78.0436C497.985 80.6339 500.105 82.4 502.695 82.4ZM525.773 82.2823C528.363 82.4 529.894 81.2226 530.835 78.9855C532.837 74.3936 529.776 67.5645 525.066 66.0339C522.711 65.3274 520.474 65.9161 519.061 67.5645C517.531 69.4484 517.295 71.45 518.59 73.8048C519.768 75.9242 521.063 77.9258 522.123 80.0452C522.947 81.6936 524.124 82.4 525.773 82.2823Z" fill="white"/>
<path d="M523.653 83.2242C525.419 86.6387 524.006 91.2306 520.945 93.7032C516.824 97 511.408 97 507.523 93.7032C504.344 90.9952 503.166 86.521 504.932 83.3419C505.168 83.8129 505.285 84.1661 505.403 84.5194C506.227 86.8742 508.7 88.5226 511.173 87.8161C511.997 87.5806 513.174 86.9919 513.527 86.1677C513.998 85.1081 513.998 83.6952 512.35 83.1065C511.879 82.9887 511.526 82.4 511.173 82.0468C509.642 80.0452 510.113 78.1613 512.585 77.6903C513.998 77.4548 515.647 77.5726 516.942 78.0436C518.59 78.5145 518.944 79.8097 518.002 81.4581C517.648 82.1645 517.06 82.9887 516.353 83.2242C514.823 83.8129 514.705 84.9903 515.176 86.1677C515.411 86.8742 516.471 87.5806 517.177 87.8161C519.65 88.6403 522.24 87.2274 523.182 84.7548C523.3 84.2839 523.418 83.9306 523.653 83.2242ZM518.826 90.8774C517.413 90.4065 516.118 90.0532 514.705 89.7C514.469 89.7 514.234 89.5823 514.116 89.5823C512.703 90.0532 511.29 90.4065 509.877 90.8774C511.173 94.0565 517.177 94.2919 518.826 90.8774ZM502.695 82.4C500.105 82.5177 497.868 80.7516 497.279 77.9258C496.337 73.5694 498.456 68.7419 502.342 66.6226C506.227 64.3855 510.702 66.7403 510.937 71.2145C510.937 71.8032 510.819 72.5097 510.466 73.0984C509.053 75.571 507.64 78.0435 506.227 80.5161C505.521 81.929 504.697 82.2823 502.695 82.4ZM504.697 70.2726C502.931 70.2726 501.635 71.5677 501.635 73.3339C501.635 75.1 502.931 76.3952 504.697 76.5129C506.345 76.5129 507.758 75.1 507.876 73.4516C507.758 71.6855 506.463 70.2726 504.697 70.2726ZM525.773 82.2823C524.124 82.4 522.947 81.6936 522.123 80.1629C521.063 78.0436 519.768 76.0419 518.59 73.9226C517.295 71.5677 517.413 69.5661 519.061 67.6823C520.474 65.9161 522.711 65.3274 525.066 66.1516C529.894 67.6823 532.955 74.5113 530.835 79.1032C529.894 81.2226 528.363 82.4 525.773 82.2823ZM524.006 70.2726C522.24 70.2726 520.827 71.5677 520.827 73.2161C520.827 74.9823 522.24 76.3952 524.006 76.3952C525.655 76.3952 526.95 74.9823 526.95 73.3339C527.068 71.6855 525.773 70.2726 524.006 70.2726Z" fill="black"/>
<path d="M518.826 90.8774C517.177 94.2919 511.29 93.9387 509.877 90.8774C511.29 90.4065 512.703 90.0532 514.116 89.5823C514.352 89.5823 514.587 89.5823 514.705 89.7C516 90.0532 517.413 90.5242 518.826 90.8774ZM504.697 70.2726C506.463 70.2726 507.758 71.6855 507.758 73.3339C507.758 74.9823 506.345 76.3952 504.579 76.3952C502.813 76.3952 501.518 74.9823 501.518 73.2161C501.635 71.5677 502.931 70.2726 504.697 70.2726ZM504.815 71.45C504.579 71.45 504.344 71.45 504.108 71.45C503.637 72.0387 502.931 72.7452 502.931 73.3339C502.813 74.2758 503.519 75.1 504.579 75.1C505.639 75.1 506.463 74.3936 506.227 73.3339C506.11 72.6274 505.403 72.1565 504.815 71.45ZM524.006 70.2726C525.655 70.2726 527.068 71.6855 526.95 73.4516C526.95 75.1 525.537 76.3952 524.006 76.5129C522.24 76.5129 520.827 75.1 520.827 73.3339C520.945 71.5677 522.24 70.2726 524.006 70.2726ZM523.653 75.4532C523.889 75.4532 524.124 75.4532 524.477 75.4532C524.948 74.7468 525.773 74.0403 525.655 73.4516C525.655 72.8629 524.595 71.8032 524.124 71.921C523.418 72.0387 522.476 72.8629 522.358 73.4516C522.24 74.0403 523.182 74.7468 523.653 75.4532Z" fill="white"/>
<path d="M504.815 71.45C505.285 72.0387 506.11 72.6274 506.227 73.3339C506.463 74.3936 505.639 74.9823 504.579 75.1C503.402 75.1 502.813 74.3936 502.931 73.3339C503.048 72.6274 503.755 72.0387 504.108 71.45C504.344 71.45 504.579 71.45 504.815 71.45ZM523.653 75.4532C523.182 74.7468 522.24 74.0403 522.358 73.4516C522.476 72.8629 523.418 71.921 524.124 71.921C524.595 71.8032 525.655 72.8629 525.655 73.4516C525.655 74.0403 524.831 74.7468 524.477 75.4532C524.242 75.4532 523.889 75.4532 523.653 75.4532Z" fill="black"/>
<path d="M460.426 107.479V111.482H458.306C457.718 111.482 457.247 111.6 457.011 111.953C456.894 112.189 456.776 112.542 456.776 113.131V114.897H460.426L459.955 118.9H456.776V130.321H452.066V118.9H449.711V114.897H452.066V112.542C452.066 110.069 452.89 108.539 454.539 107.832C455.363 107.479 456.069 107.479 456.776 107.479H460.426ZM475.261 121.255V124.081C475.261 127.024 474.202 129.026 472.082 129.968C471.023 130.439 469.845 130.674 468.315 130.674C465.135 130.674 463.016 129.615 462.074 127.613C461.603 126.789 461.368 125.729 461.368 124.434V121.019C461.368 117.958 462.663 116.074 465.253 115.25C466.195 115.015 467.019 114.779 468.079 114.779H468.55C471.847 114.779 473.966 116.074 474.908 118.547C475.144 119.135 475.261 120.077 475.261 121.255ZM469.374 118.9C469.139 118.782 468.785 118.782 468.432 118.782H468.079C467.255 118.782 466.666 119.135 466.313 119.842C466.195 120.077 466.195 120.431 466.195 120.784V124.669C466.195 125.965 466.902 126.671 468.315 126.671H468.432C469.492 126.671 470.198 126.2 470.552 125.258C470.552 125.023 470.552 124.669 470.552 124.316V121.137C470.434 119.842 470.081 119.135 469.374 118.9ZM489.861 121.255V124.081C489.861 127.024 488.802 129.026 486.682 129.968C485.623 130.439 484.445 130.674 482.915 130.674C479.735 130.674 477.616 129.615 476.674 127.613C476.203 126.789 475.968 125.729 475.968 124.434V121.019C475.968 117.958 477.263 116.074 479.853 115.25C480.795 115.015 481.619 114.779 482.679 114.779H483.15C486.447 114.779 488.566 116.074 489.508 118.547C489.744 119.135 489.861 120.077 489.861 121.255ZM484.092 118.9C483.856 118.782 483.503 118.782 483.15 118.782H482.797C481.973 118.782 481.384 119.135 481.031 119.842C480.913 120.077 480.913 120.431 480.913 120.784V124.669C480.913 125.965 481.619 126.671 483.032 126.671C484.092 126.671 484.798 126.2 485.152 125.258C485.152 125.023 485.152 124.669 485.152 124.316V121.137C485.152 119.842 484.798 119.135 484.092 118.9ZM491.863 116.898C492.452 115.485 494.218 114.779 496.926 114.779C497.985 114.779 499.281 115.015 500.34 115.368C500.34 116.074 500.34 114.426 500.34 112.542C500.34 111.482 500.34 110.187 500.34 108.774L505.05 107.95V129.968C502.695 130.321 500.694 130.556 498.692 130.556C495.866 130.556 493.865 129.968 492.687 128.908C492.098 128.319 491.863 127.848 491.745 127.495C491.392 126.906 491.156 125.376 491.156 122.785V121.255C491.274 119.018 491.51 117.487 491.863 116.898ZM496.219 125.376C496.455 126.318 497.279 126.671 498.692 126.671H499.045H500.458V119.371C499.752 118.9 499.045 118.665 498.221 118.665H497.868H497.515C496.573 118.782 496.102 119.371 496.102 120.431V124.316C496.102 124.787 496.102 125.023 496.219 125.376ZM507.169 114.897H511.173C511.173 115.015 511.173 115.132 511.29 115.25C511.29 115.485 511.29 115.721 511.29 115.839C512.821 115.015 515.058 114.19 517.648 115.015C519.297 115.603 520.121 116.898 520.356 117.605C520.71 118.665 520.945 119.724 520.945 122.315V123.845C520.945 126.2 520.71 127.731 520.356 128.319C519.768 129.732 518.002 130.439 515.294 130.439C514.234 130.439 513.41 130.321 512.821 130.203C512.468 130.085 512.115 130.085 511.879 129.968V130.439V137.385H507.052V118.547V115.25V114.897H507.169ZM514.116 126.435H514.352H514.705C515.647 126.2 516 125.611 516 124.669V121.019C516 120.666 516 120.313 515.882 120.077C515.647 119.135 514.823 118.782 513.527 118.9C513.41 118.9 513.174 118.9 513.056 119.018C512.703 119.135 512.232 119.135 511.761 119.371V125.729C512.703 126.2 513.41 126.435 514.116 126.435ZM536.016 120.902V130.439H532.013C532.013 130.321 532.013 130.203 531.895 130.203C531.777 129.968 531.777 129.732 531.777 129.497C530.365 130.203 528.952 130.674 527.539 130.674H527.185C525.773 130.674 524.595 130.085 523.771 129.026C523.182 128.202 522.947 127.26 522.947 126.2V126.082C522.947 124.198 523.653 123.021 524.948 122.315C525.537 121.961 526.832 121.726 529.069 121.726H531.306V121.255C531.306 120.195 531.189 119.606 530.835 119.371C530.482 119.135 529.894 119.018 529.069 119.018H524.595L525.066 115.015H529.894C532.955 115.015 534.839 115.721 535.545 117.252C535.781 118.076 536.016 119.371 536.016 120.902ZM529.54 124.787C528.598 124.787 528.01 124.905 527.892 125.023C527.774 125.14 527.656 125.376 527.656 125.847C527.656 126.671 528.127 127.142 528.952 127.142C529.54 127.142 530.365 126.906 531.189 126.553V124.787H529.54ZM551.676 121.373V130.439H546.848V120.548C546.848 119.606 546.377 119.018 545.435 118.782C545.2 118.782 544.847 118.782 544.494 118.782C543.905 118.9 543.198 119.018 542.492 119.489V130.556H537.782V114.897H541.785L541.903 115.132C542.021 115.368 542.139 115.485 542.139 115.839C542.492 115.721 544.023 114.779 546.377 114.661C548.261 114.544 549.91 114.779 551.087 116.781C551.558 117.605 551.676 118.9 551.676 121.373ZM554.266 116.898C554.855 115.485 556.621 114.779 559.329 114.779C560.389 114.779 561.684 115.015 562.744 115.368C562.744 116.074 562.744 114.426 562.744 112.542C562.744 111.482 562.744 110.187 562.744 108.774L567.453 107.95V129.968C565.098 130.321 563.097 130.556 561.095 130.556C558.269 130.556 556.268 129.968 555.09 128.908C554.502 128.319 554.266 127.848 554.148 127.495C553.795 126.906 553.56 125.376 553.56 122.785V121.255C553.677 119.018 553.913 117.487 554.266 116.898ZM558.623 125.376C558.858 126.318 559.682 126.671 561.095 126.671H561.448H562.861V119.371C562.155 118.9 561.448 118.665 560.624 118.665H560.271H559.918C558.976 118.782 558.505 119.371 558.505 120.431V124.316C558.505 124.787 558.505 125.023 558.623 125.376ZM582.524 120.902V130.439H578.521C578.521 130.321 578.521 130.203 578.403 130.203C578.285 129.968 578.285 129.732 578.285 129.497C576.873 130.203 575.46 130.674 574.047 130.674H573.694C572.281 130.674 571.103 130.085 570.279 129.026C569.69 128.202 569.455 127.26 569.455 126.2V126.082C569.455 124.198 570.161 123.021 571.456 122.315C572.045 121.961 573.34 121.726 575.577 121.726H577.815V121.255C577.815 120.195 577.697 119.606 577.344 119.371C576.99 119.135 576.402 119.018 575.577 119.018H571.103L571.574 115.015H576.402C579.463 115.015 581.347 115.721 582.053 117.252C582.289 118.076 582.524 119.371 582.524 120.902ZM576.166 124.787C575.224 124.787 574.635 124.905 574.518 125.023C574.4 125.14 574.282 125.376 574.282 125.847C574.282 126.671 574.753 127.142 575.577 127.142C576.166 127.142 576.99 126.906 577.815 126.553V124.787H576.166Z" fill="#ED5B34"/>
<path opacity="0.4" fill-rule="evenodd" clip-rule="evenodd" d="M179.383 872.657C219.885 825.698 259.411 895.158 198.902 906.408C259.411 918.148 219.397 987.119 179.383 940.159C199.878 998.858 120.337 998.369 140.833 940.159C100.33 987.119 60.8041 918.148 121.313 906.408C60.3161 895.158 100.33 826.187 140.833 872.657C119.849 814.448 199.878 814.448 179.383 872.657ZM159.863 897.604C164.744 897.604 169.135 901.517 169.135 906.408C169.135 911.3 164.744 915.702 159.863 915.702C154.984 915.702 151.08 911.3 151.08 906.408C151.08 901.517 154.984 897.604 159.863 897.604Z" fill="#FFCA6C"/>
<g opacity="0.6">
<path d="M16 383C16 383 55.3573 410.543 77.6835 415.783C93.5291 419.505 110.292 417.126 126.509 415.783C142.236 414.486 173.2 401.983 173.2 401.983C164.791 415.798 168.363 424.459 174.409 435.041C161.069 444.367 144.219 447.631 126.438 449.275H74.6092C44.127 444.138 34.8488 433.137 25.7761 417.781C24.6776 406.931 25.5706 401.185 16 383Z" fill="#FFCA6C" stroke="#D37528" stroke-linecap="round" stroke-linejoin="round"/>
<path d="M176.551 392.76C187.378 401.548 189.71 409.215 206.962 414.763L231.809 387.584C239.499 379.665 248.24 389.528 243.798 396.649C234.457 407.713 225.755 418.793 219.006 429.865C217.505 439.823 213.846 452.571 194.973 471.277C189.955 456.783 186.493 443.49 173.556 434.607C165.099 422.255 170.505 406.788 176.551 392.76Z" stroke="#D37528" stroke-linecap="round" stroke-linejoin="round"/>
<path d="M184.691 447.979C149.017 474.85 75.115 499.467 34.343 449.275V472.573C66.2319 517.692 152.929 494.307 192.452 463.137C190.595 457.352 188.54 451.765 184.691 447.979Z" fill="#FFCA6C" stroke="#D37528" stroke-linecap="round" stroke-linejoin="round"/>
<path d="M78.4659 475.964C84.7337 475.964 89.8147 470.844 89.8147 464.528C89.8147 458.213 84.7337 453.092 78.4659 453.092C72.1981 453.092 67.1171 458.213 67.1171 464.528C67.1171 470.844 72.1981 475.964 78.4659 475.964Z" fill="#FFCA6C" stroke="#D37528" stroke-linecap="round" stroke-linejoin="round"/>
<path d="M101.377 476.027C107.645 476.027 112.726 470.907 112.726 464.591C112.726 458.275 107.645 453.156 101.377 453.156C95.1091 453.156 90.0281 458.275 90.0281 464.591C90.0281 470.907 95.1091 476.027 101.377 476.027Z" fill="#FFCA6C" stroke="#D37528" stroke-linecap="round" stroke-linejoin="round"/>
<path d="M124.723 474.731C130.99 474.731 136.071 469.611 136.071 463.295C136.071 456.98 130.99 451.86 124.723 451.86C118.455 451.86 113.374 456.98 113.374 463.295C113.374 469.611 118.455 474.731 124.723 474.731Z" fill="#FFCA6C" stroke="#D37528" stroke-linecap="round" stroke-linejoin="round"/>
<path d="M147.136 467.405C153.403 467.405 158.484 462.766 158.484 457.044C158.484 451.322 153.403 446.683 147.136 446.683C140.868 446.683 135.787 451.322 135.787 457.044C135.787 462.766 140.868 467.405 147.136 467.405Z" fill="#FFCA6C" stroke="#D37528" stroke-linecap="round" stroke-linejoin="round"/>
<path d="M169.248 455.914C174.058 455.914 177.958 452.376 177.958 448.011C177.958 443.647 174.058 440.108 169.248 440.108C164.439 440.108 160.539 443.647 160.539 448.011C160.539 452.376 164.439 455.914 169.248 455.914Z" fill="#FFCA6C" stroke="#D37528" stroke-linecap="round" stroke-linejoin="round"/>
<path d="M168.411 421.235C185.9 427.708 198.687 424.428 207.262 414.384M191.598 459.233C194.436 440.803 203.508 431.209 216.454 428.585" stroke="#D37528" stroke-linecap="round" stroke-linejoin="round"/>
</g>
</g>
<defs>
<radialGradient id="paint0_radial_2_59" cx="0" cy="0" r="1" gradientUnits="userSpaceOnUse" gradientTransform="translate(540 540) rotate(90) scale(793)">
<stop stop-color="#F5C92B"/>
<stop offset="1" stop-color="#D37528"/>
</radialGradient>
<radialGradient id="paint1_radial_2_59" cx="0" cy="0" r="1" gradientUnits="userSpaceOnUse" gradientTransform="translate(279 300) rotate(95.6935) scale(665.282 485.9)">
<stop stop-color="white"/>
<stop offset="1" stop-color="#FCDCB8"/>
</radialGradient>
<clipPath id="clip0_2_59">
<rect width="1080" height="1080" fill="white"/>
</clipPath>
</defs>
</svg>
