<svg width="43" height="43" viewBox="0 0 43 43" fill="none" xmlns="http://www.w3.org/2000/svg">
<g clip-path="url(#clip0_3_125)">
<path d="M10.8347 42.8488C9.18206 42.8303 7.54494 42.5272 5.99522 41.9528C4.86356 41.5345 3.83968 40.8685 2.99845 40.0037C2.13124 39.1641 1.46432 38.14 1.04724 37.0073C0.473248 35.4576 0.170567 33.8207 0.152478 32.1682C0.0255526 29.4211 0 28.5971 0 21.6364C0 14.6756 0.028066 13.8546 0.151221 11.1054C0.171505 9.45356 0.474558 7.81744 1.04724 6.26796C1.46635 5.1361 2.13233 4.11182 2.99677 3.26951C3.83696 2.40308 4.86132 1.73678 5.99397 1.31997C7.54368 0.745507 9.1808 0.4424 10.8335 0.423957C13.5814 0.298288 14.4066 0.272736 21.3636 0.272736C28.3206 0.272736 29.1454 0.300802 31.8947 0.423957C33.5469 0.444097 35.1834 0.747153 36.7333 1.31997C37.8655 1.73733 38.8895 2.4034 39.7301 3.26909C40.596 4.10991 41.2624 5.13426 41.68 6.2667C42.2546 7.81639 42.5579 9.45351 42.5765 11.1062C42.7021 13.8554 42.7277 14.6785 42.7277 21.6372C42.7277 28.5959 42.7021 29.419 42.5765 32.1682C42.5565 33.8206 42.2533 35.4574 41.68 37.0073C41.2464 38.1313 40.5822 39.152 39.7302 40.0037C38.8783 40.8555 37.8574 41.5194 36.7333 41.9528C35.1836 42.5274 33.5465 42.8306 31.8938 42.8492C29.1471 42.9749 28.3215 43.0004 21.3628 43.0004C14.4041 43.0004 13.581 42.9761 10.8343 42.8492" fill="url(#paint0_radial_3_125)"/>
<path d="M10.8347 42.8488C9.18206 42.8303 7.54494 42.5272 5.99522 41.9528C4.86356 41.5345 3.83968 40.8685 2.99845 40.0037C2.13124 39.1641 1.46432 38.14 1.04724 37.0073C0.473248 35.4576 0.170567 33.8207 0.152478 32.1682C0.0255526 29.4211 0 28.5971 0 21.6364C0 14.6756 0.028066 13.8546 0.151221 11.1054C0.171505 9.45356 0.474558 7.81744 1.04724 6.26796C1.46635 5.1361 2.13233 4.11182 2.99677 3.26951C3.83696 2.40308 4.86132 1.73678 5.99397 1.31997C7.54368 0.745507 9.1808 0.4424 10.8335 0.423957C13.5814 0.298288 14.4066 0.272736 21.3636 0.272736C28.3206 0.272736 29.1454 0.300802 31.8947 0.423957C33.5469 0.444097 35.1834 0.747153 36.7333 1.31997C37.8655 1.73733 38.8895 2.4034 39.7301 3.26909C40.596 4.10991 41.2624 5.13426 41.68 6.2667C42.2546 7.81639 42.5579 9.45351 42.5765 11.1062C42.7021 13.8554 42.7277 14.6785 42.7277 21.6372C42.7277 28.5959 42.7021 29.419 42.5765 32.1682C42.5565 33.8206 42.2533 35.4574 41.68 37.0073C41.2464 38.1313 40.5822 39.152 39.7302 40.0037C38.8783 40.8555 37.8574 41.5194 36.7333 41.9528C35.1836 42.5274 33.5465 42.8306 31.8938 42.8492C29.1471 42.9749 28.3215 43.0004 21.3628 43.0004C14.4041 43.0004 13.581 42.9761 10.8343 42.8492" fill="url(#paint1_radial_3_125)"/>
<path d="M16.1179 21.7273C16.118 20.6808 16.4284 19.6578 17.0098 18.7877C17.5913 17.9177 18.4177 17.2396 19.3846 16.8392C20.3515 16.4388 21.4154 16.3341 22.4417 16.5384C23.4681 16.7427 24.4108 17.2467 25.1507 17.9868C25.8906 18.7268 26.3944 19.6697 26.5985 20.6961C26.8025 21.7225 26.6976 22.7864 26.297 23.7532C25.8963 24.7199 25.218 25.5462 24.3478 26.1275C23.4776 26.7087 22.4546 27.0189 21.4081 27.0187C20.0049 27.0185 18.6592 26.4609 17.6671 25.4686C16.675 24.4762 16.1178 23.1305 16.1179 21.7273ZM13.2572 21.7273C13.2572 23.3393 13.7353 24.9152 14.6309 26.2556C15.5265 27.596 16.7995 28.6408 18.2889 29.2577C19.7783 29.8746 21.4171 30.036 22.9982 29.7215C24.5794 29.407 26.0317 28.6307 27.1716 27.4908C28.3115 26.3509 29.0878 24.8985 29.4023 23.3174C29.7168 21.7363 29.5554 20.0974 28.9385 18.6081C28.3216 17.1187 27.2769 15.8457 25.9365 14.9501C24.5961 14.0544 23.0202 13.5764 21.4081 13.5764C20.3377 13.5763 19.2778 13.7871 18.2888 14.1967C17.2999 14.6063 16.4013 15.2067 15.6444 15.9636C14.8876 16.7205 14.2872 17.6191 13.8776 18.608C13.468 19.5969 13.2572 20.6569 13.2572 21.7273ZM27.9768 13.2534C27.9766 13.6302 28.0882 13.9985 28.2973 14.3118C28.5065 14.6251 28.8038 14.8694 29.1518 15.0137C29.4998 15.158 29.8828 15.1959 30.2523 15.1226C30.6218 15.0492 30.9613 14.868 31.2277 14.6017C31.4942 14.3354 31.6758 13.9961 31.7494 13.6267C31.8231 13.2572 31.7856 12.8743 31.6415 12.5261C31.4975 12.178 31.2535 11.8805 30.9404 11.671C30.6273 11.4616 30.259 11.3497 29.8823 11.3496C29.3774 11.3498 28.8932 11.5504 28.536 11.9074C28.1789 12.2644 27.9781 12.7485 27.9776 13.2534M14.9961 34.6481C13.9895 34.637 12.9924 34.4528 12.0483 34.1035C11.3637 33.8396 10.7418 33.4353 10.2229 32.9166C9.70395 32.3978 9.29937 31.7762 9.03519 31.0917C8.68574 30.1476 8.50153 29.1505 8.49063 28.1439C8.41356 26.4708 8.39848 25.9682 8.39848 21.7294C8.39848 17.4906 8.41523 16.9891 8.49063 15.3144C8.50285 14.308 8.68701 13.311 9.03519 12.3666C9.29906 11.6818 9.70353 11.0598 10.2225 10.5408C10.7415 10.0219 11.3634 9.6174 12.0483 9.35352C12.9923 9.00408 13.9895 8.81987 14.9961 8.80897C16.6691 8.73189 17.1718 8.71681 21.4089 8.71681C25.646 8.71681 26.1491 8.73315 27.8239 8.80939C28.8303 8.8216 29.8273 9.00577 30.7717 9.35395C31.4565 9.61784 32.0785 10.0223 32.5974 10.5413C33.1164 11.0603 33.5209 11.6822 33.7848 12.3671C34.1342 13.3111 34.3184 14.3083 34.3293 15.3148C34.4064 16.9904 34.4215 17.4906 34.4215 21.7298C34.4215 25.969 34.406 26.47 34.3293 28.1447C34.3176 29.1512 34.1334 30.1482 33.7848 31.0925C33.5206 31.777 33.116 32.3987 32.5971 32.9174C32.0781 33.4361 31.4563 33.8405 30.7717 34.1043C29.8276 34.4538 28.8305 34.638 27.8239 34.6489C26.1508 34.726 25.6481 34.7411 21.4089 34.7411C17.1697 34.7411 16.6687 34.7256 14.9961 34.6489M14.8645 5.95085C13.5475 5.97674 12.2443 6.22603 11.0107 6.68809C9.95614 7.09583 8.99841 7.71944 8.19892 8.51893C7.39944 9.31842 6.77583 10.2761 6.36809 11.3307C5.90608 12.5644 5.6568 13.8675 5.63084 15.1845C5.55251 16.8769 5.53491 17.4181 5.53491 21.7289C5.53491 26.0398 5.55293 26.5806 5.63084 28.2733C5.65679 29.5904 5.90608 30.8935 6.36809 32.1272C6.77585 33.1817 7.39946 34.1394 8.19895 34.9389C8.99843 35.7384 9.95615 36.362 11.0107 36.7698C12.2444 37.2316 13.5475 37.4809 14.8645 37.507C16.5577 37.5841 17.0981 37.603 21.4089 37.603C25.7198 37.603 26.2606 37.5849 27.9533 37.507C29.2704 37.481 30.5735 37.2317 31.8072 36.7698C32.8617 36.362 33.8194 35.7384 34.6189 34.9389C35.4184 34.1394 36.042 33.1817 36.4498 32.1272C36.9124 30.8937 37.1617 29.5905 37.187 28.2733C37.2641 26.5797 37.2817 26.0398 37.2817 21.7289C37.2817 17.4181 37.2637 16.8773 37.187 15.1845C37.1611 13.8675 36.9118 12.5643 36.4498 11.3307C36.042 10.2763 35.4186 9.31876 34.6193 8.5193C33.8201 7.71984 32.8627 7.09612 31.8084 6.68809C30.5749 6.22573 29.2717 5.97644 27.9546 5.95085C26.2618 5.87335 25.721 5.85492 21.411 5.85492C17.101 5.85492 16.559 5.87293 14.8654 5.95085" fill="white"/>
</g>
<defs>
<radialGradient id="paint0_radial_3_125" cx="0" cy="0" r="1" gradientUnits="userSpaceOnUse" gradientTransform="translate(2.76512 42.0642) scale(54.2477)">
<stop offset="0.09" stop-color="#FA8F21"/>
<stop offset="0.78" stop-color="#D82D7E"/>
</radialGradient>
<radialGradient id="paint1_radial_3_125" cx="0" cy="0" r="1" gradientUnits="userSpaceOnUse" gradientTransform="translate(29.5958 40.6919) scale(47.7385)">
<stop offset="0.64" stop-color="#8C3AAA" stop-opacity="0"/>
<stop offset="1" stop-color="#8C3AAA"/>
</radialGradient>
<clipPath id="clip0_3_125">
<rect width="42.7273" height="42.7273" fill="white" transform="translate(0 0.272736)"/>
</clipPath>
</defs>
</svg>
