<svg width="221" height="75" viewBox="0 0 221 75" fill="none" xmlns="http://www.w3.org/2000/svg">
<path d="M89.475 15.8542C89.475 16.1891 89.7442 16.4523 90.0731 16.4523C90.7548 16.4523 91.305 17.0084 91.305 17.6842C91.305 18.0131 91.5742 18.2823 91.9031 18.2823C92.232 18.2823 92.5011 18.0131 92.5011 17.6842C92.5011 16.3446 91.4127 15.2562 90.0731 15.2562C89.7442 15.2562 89.475 15.5253 89.475 15.8542ZM99.2111 18.2823C99.546 18.2823 99.8092 18.0131 99.8092 17.6842C99.8092 12.3138 95.4435 7.94814 90.0731 7.94814C89.7442 7.94814 89.475 8.21726 89.475 8.54618C89.475 8.8751 89.7442 9.14422 90.0731 9.14422C94.7856 9.14422 98.6131 12.9777 98.6131 17.6842C98.6131 18.0131 98.8822 18.2823 99.2111 18.2823Z" fill="#210B01"/>
<path d="M94.9591 17.6842C94.9591 18.0131 95.2282 18.2823 95.5571 18.2823C95.886 18.2823 96.1551 18.0131 96.1551 17.6842C96.1551 14.3292 93.4281 11.6022 90.0731 11.6022C89.7441 11.6022 89.475 11.8713 89.475 12.2002C89.475 12.5351 89.7441 12.7982 90.0731 12.7982C92.7702 12.7982 94.9591 14.993 94.9591 17.6842ZM90.0731 4.29412C89.7441 4.29412 89.475 4.56324 89.475 4.89216C89.475 5.22108 89.7441 5.4902 90.0731 5.4902C96.801 5.4902 102.273 10.9623 102.273 17.6842C102.273 18.0131 102.536 18.2823 102.871 18.2823C103.2 18.2823 103.469 18.0131 103.469 17.6842C103.469 10.2984 97.4589 4.29412 90.0731 4.29412ZM95.9159 23.9876L95.1325 24.4122C93.8108 25.1358 92.1363 24.8906 91.0658 23.8201L84.7505 17.5048C83.68 16.4343 83.4348 14.7598 84.1585 13.4322L84.5831 12.6547C85.0615 11.7696 85.2349 10.7769 85.0914 9.78412C84.9558 8.79338 84.4976 7.8749 83.7877 7.17069C82.9145 6.29756 81.7543 5.81912 80.5164 5.81912C79.2785 5.81912 78.1123 6.29756 77.2391 7.17069L76.9341 7.48167C75.3194 9.09638 75.134 11.8773 76.4079 15.322C77.6099 18.6112 80.032 22.1755 83.2136 25.3571C88.0637 30.2072 93.464 33 97.3392 33C98.8702 33 100.168 32.5634 101.089 31.6425L101.4 31.3315C101.831 30.9013 102.172 30.3904 102.405 29.8281C102.638 29.2657 102.758 28.6629 102.757 28.0542C102.749 26.8284 102.262 25.6545 101.4 24.783C99.9587 23.3417 97.7041 23.0187 95.9159 23.9876Z" fill="#210B01"/>
<path d="M138.357 21.6373C138.058 21.4878 136.114 20.5907 135.815 20.4412C135.516 20.2917 135.217 20.2917 134.918 20.5907C134.619 20.8897 134.021 21.7868 133.722 22.0858C133.573 22.3848 133.274 22.3848 132.975 22.2353C131.928 21.7868 130.881 21.1887 129.984 20.4412C129.237 19.6936 128.489 18.7966 127.891 17.8995C127.742 17.6005 127.891 17.3015 128.041 17.152C128.19 17.0025 128.34 16.7034 128.639 16.5539C128.788 16.4044 128.938 16.1054 128.938 15.9559C129.087 15.8064 129.087 15.5074 128.938 15.3579C128.788 15.2083 128.041 13.4142 127.742 12.6667C127.592 11.6201 127.293 11.6201 126.994 11.6201H126.247C125.948 11.6201 125.499 11.9191 125.35 12.0686C124.453 12.9657 124.004 14.0123 124.004 15.2083C124.154 16.5539 124.602 17.8995 125.499 19.0956C127.144 21.4878 129.237 23.4314 131.779 24.6275C132.526 24.9265 133.124 25.2255 133.872 25.375C134.619 25.674 135.367 25.674 136.264 25.5245C137.31 25.375 138.207 24.6275 138.805 23.7304C139.104 23.1324 139.104 22.5343 138.955 21.9363L138.357 21.6373ZM142.095 8.03188C136.264 2.201 126.845 2.201 121.014 8.03188C116.229 12.8162 115.332 20.1422 118.622 25.9731L116.529 33.5981L124.453 31.5049C126.695 32.701 129.087 33.299 131.479 33.299C139.703 33.299 146.281 26.7206 146.281 18.4976C146.43 14.6103 144.786 10.8726 142.095 8.03188ZM138.058 28.9633C136.114 30.1593 133.872 30.9069 131.479 30.9069C129.237 30.9069 127.144 30.3088 125.2 29.2623L124.752 28.9633L120.117 30.1593L121.313 25.674L121.014 25.2255C117.426 19.2451 119.22 11.7696 125.051 8.03188C130.881 4.29413 138.357 6.23776 141.945 11.9191C145.533 17.75 143.889 25.375 138.058 28.9633Z" fill="#210B01"/>
<path d="M7.08386 60.5082L7.01182 58.4671V55.8256H8.86082V58.4671L8.74076 60.5082L10.5658 60.3881H13.3513V62.2131H10.5658L8.74076 62.1411L8.86082 64.1342V66.9437H7.01182V64.1342L7.08386 62.1411L4.99472 62.2131H2.52137V60.3881H4.99472L7.08386 60.5082ZM17.0044 67.9522C18.4772 67.1198 19.83 66.1673 21.0627 65.0947C22.2953 64.0061 23.2719 62.8855 23.9923 61.7328C24.7287 60.5802 25.0969 59.4916 25.0969 58.4671C25.0969 57.5866 24.8327 56.8902 24.3044 56.3779C23.7761 55.8496 23.0237 55.5855 22.0472 55.5855C21.1347 55.5855 20.3503 55.7696 19.6939 56.1378C19.0376 56.49 18.4292 56.9302 17.8689 57.4585L17.1005 56.3779C17.6608 55.7216 18.4612 55.1293 19.5018 54.601C20.5424 54.0567 21.655 53.7845 22.8396 53.7845C23.9602 53.7845 24.9047 53.9926 25.6732 54.4089C26.4416 54.8091 27.0099 55.3374 27.3781 55.9937C27.7463 56.6501 27.9304 57.3705 27.9304 58.1549C27.9304 59.7398 27.17 61.3726 25.6492 63.0536C24.1283 64.7185 22.2233 66.2153 19.934 67.544L27.3781 66.9917L28.2186 64.9266L29.4432 65.1667L28.8189 68.9608H17.3646L17.0044 67.9522ZM33.9974 72.8269C33.6292 72.8269 33.221 72.7949 32.7728 72.7308C32.3245 72.6828 31.9483 72.6188 31.6442 72.5387V71.17C32.1725 71.3301 32.8048 71.4101 33.5412 71.4101C34.8059 71.4101 35.8945 71.21 36.807 70.8098C37.7355 70.4096 38.4399 69.8653 38.9201 69.1769C39.4164 68.4885 39.6645 67.7361 39.6645 66.9197C39.6645 65.8311 39.3283 64.9906 38.656 64.3983C37.9996 63.79 36.9831 63.4778 35.6063 63.4618L34.8619 63.6539C34.3336 63.814 34.0775 63.886 34.0935 63.87L33.6853 62.5973C34.3576 62.4692 34.99 62.2771 35.5823 62.021C36.5749 61.6048 37.3753 61.0525 37.9836 60.3641C38.5919 59.6597 38.8961 58.9153 38.8961 58.1309C38.8961 57.2184 38.624 56.554 38.0797 56.1378C37.5514 55.7056 36.871 55.4894 36.0386 55.4894C35.3182 55.4894 34.6218 55.6175 33.9494 55.8737C33.2931 56.1298 32.7248 56.442 32.2445 56.8102L31.5961 55.7296C32.0444 55.2813 32.7568 54.8491 33.7333 54.4329C34.7258 54.0006 35.7344 53.7845 36.759 53.7845C38.2157 53.7845 39.3924 54.1047 40.2889 54.745C41.1854 55.3694 41.6336 56.3299 41.6336 57.6266C41.6336 58.7632 41.1854 59.7958 40.2889 60.7243C39.3924 61.6528 38.3278 62.3332 37.0951 62.7654C37.2552 62.7494 37.4793 62.7414 37.7675 62.7414C38.712 62.7414 39.5445 62.9175 40.2649 63.2697C40.9853 63.6219 41.5376 64.1021 41.9218 64.7105C42.322 65.3028 42.5221 65.9752 42.5221 66.7276C42.5221 67.8962 42.1699 68.9448 41.4655 69.8733C40.7611 70.8018 39.7606 71.5222 38.4639 72.0345C37.1832 72.5627 35.6944 72.8269 33.9974 72.8269ZM53.1496 68.9608H45.1772L44.5529 67.8802C45.4974 66.0872 46.658 63.7179 48.0348 60.7723C49.4115 57.8107 50.6442 55.0972 51.7328 52.6319H52.3571L54.2782 53.6645L47.7946 66.1513L46.8341 67.616L53.1496 67.2799L53.2456 62.5973L55.2867 62.4292V67.1598L58.6726 66.9917V68.9608H55.2867V72.8269H53.1496V68.9608ZM66.3774 64.5664C66.3774 63.6219 66.6816 62.7494 67.2899 61.949C67.9142 61.1325 68.8427 60.4521 70.0754 59.9079C69.1309 59.2995 68.4025 58.6592 67.8902 57.9868C67.3779 57.2984 67.1218 56.442 67.1218 55.4174C67.1218 54.4729 67.3699 53.6645 67.8662 52.9921C68.3785 52.3037 69.0508 51.7834 69.8833 51.4312C70.7157 51.079 71.6122 50.9029 72.5728 50.9029C74.1256 50.9029 75.3743 51.2631 76.3188 51.9835C77.2633 52.7039 77.7356 53.6645 77.7356 54.8651C77.7356 55.7776 77.4554 56.6261 76.8951 57.4105C76.3508 58.1789 75.5584 58.8513 74.5178 59.4276C75.7985 60.148 76.7911 60.8764 77.4954 61.6128C78.1998 62.3492 78.552 63.2617 78.552 64.3503C78.552 65.3268 78.2639 66.1833 77.6875 66.9197C77.1272 67.6401 76.3748 68.2004 75.4303 68.6006C74.4858 69.0008 73.4612 69.2009 72.3566 69.2009C71.3321 69.2009 70.3636 69.0408 69.4511 68.7207C68.5546 68.4005 67.8182 67.8962 67.2419 67.2078C66.6655 66.5034 66.3774 65.623 66.3774 64.5664ZM69.331 54.8651C69.331 55.4414 69.5071 55.9537 69.8593 56.4019C70.2115 56.8502 70.6437 57.2344 71.156 57.5546C71.6683 57.8747 72.4047 58.291 73.3652 58.8033C74.0856 58.419 74.6539 57.9308 75.0701 57.3385C75.4863 56.7461 75.6945 56.1058 75.6945 55.4174C75.6945 54.3608 75.4063 53.5364 74.83 52.9441C74.2537 52.3357 73.4773 52.0316 72.5007 52.0316C71.6202 52.0316 70.8678 52.2877 70.2435 52.8C69.6352 53.3123 69.331 54.0006 69.331 54.8651ZM76.0066 64.8545C76.0066 64.2782 75.8385 63.774 75.5024 63.3417C75.1662 62.8935 74.7419 62.5093 74.2297 62.1891C73.7334 61.8689 73.045 61.4847 72.1645 61.0365C71.7163 60.8123 71.3801 60.6362 71.156 60.5082C70.4036 60.8924 69.7952 61.4047 69.331 62.045C68.8667 62.6854 68.6346 63.3737 68.6346 64.1101C68.6346 65.2948 68.9788 66.2393 69.6672 66.9437C70.3716 67.6321 71.3241 67.9762 72.5247 67.9762C73.101 67.9762 73.6533 67.8482 74.1816 67.592C74.7259 67.3359 75.1662 66.9677 75.5024 66.4874C75.8385 66.0072 76.0066 65.4629 76.0066 64.8545ZM84.5268 56.57C84.1906 56.6981 83.6623 56.8502 82.9419 57.0263C82.2215 57.2024 81.6372 57.3224 81.189 57.3865L80.9488 56.0417C81.7653 55.8657 82.5977 55.5695 83.4462 55.1533C84.3107 54.737 85.031 54.2808 85.6074 53.7845H85.6314L87.0962 54.0246V67.568L90.0738 67.7841V68.9608H81.4291V67.7841L84.5268 67.568V56.57ZM98.2005 69.1769C96.1514 69.1769 94.6146 68.4725 93.59 67.0637C92.5815 65.639 92.0772 63.806 92.0772 61.5648C92.0772 59.9959 92.3653 58.6272 92.9417 57.4585C93.518 56.2739 94.3024 55.3694 95.2949 54.745C96.2875 54.1207 97.3761 53.8085 98.5607 53.8085C100.642 53.8085 102.163 54.4809 103.123 55.8256C104.084 57.1544 104.564 58.9793 104.564 61.3006C104.564 62.8535 104.284 64.2302 103.724 65.4309C103.179 66.6155 102.419 67.536 101.442 68.1924C100.482 68.8487 99.4012 69.1769 98.2005 69.1769ZM98.2966 67.9522C100.682 67.9522 101.875 65.8151 101.875 61.5407C101.875 59.4596 101.602 57.8587 101.058 56.7381C100.53 55.6175 99.6333 55.0572 98.3686 55.0572C97.1359 55.0572 96.2234 55.5935 95.6311 56.6661C95.0388 57.7227 94.7426 59.2435 94.7426 61.2286C94.7426 63.2617 95.0228 64.8946 95.5831 66.1272C96.1594 67.3439 97.0639 67.9522 98.2966 67.9522ZM119.329 69.1769C117.28 69.1769 115.743 68.4725 114.719 67.0637C113.71 65.639 113.206 63.806 113.206 61.5648C113.206 59.9959 113.494 58.6272 114.07 57.4585C114.647 56.2739 115.431 55.3694 116.424 54.745C117.416 54.1207 118.505 53.8085 119.689 53.8085C121.771 53.8085 123.291 54.4809 124.252 55.8256C125.212 57.1544 125.693 58.9793 125.693 61.3006C125.693 62.8535 125.413 64.2302 124.852 65.4309C124.308 66.6155 123.548 67.536 122.571 68.1924C121.61 68.8487 120.53 69.1769 119.329 69.1769ZM119.425 67.9522C121.811 67.9522 123.003 65.8151 123.003 61.5407C123.003 59.4596 122.731 57.8587 122.187 56.7381C121.658 55.6175 120.762 55.0572 119.497 55.0572C118.265 55.0572 117.352 55.5935 116.76 56.6661C116.167 57.7227 115.871 59.2435 115.871 61.2286C115.871 63.2617 116.151 64.8946 116.712 66.1272C117.288 67.3439 118.193 67.9522 119.425 67.9522ZM134.759 69.1769C132.71 69.1769 131.174 68.4725 130.149 67.0637C129.14 65.639 128.636 63.806 128.636 61.5648C128.636 59.9959 128.924 58.6272 129.501 57.4585C130.077 56.2739 130.861 55.3694 131.854 54.745C132.846 54.1207 133.935 53.8085 135.12 53.8085C137.201 53.8085 138.722 54.4809 139.682 55.8256C140.643 57.1544 141.123 58.9793 141.123 61.3006C141.123 62.8535 140.843 64.2302 140.282 65.4309C139.738 66.6155 138.978 67.536 138.001 68.1924C137.041 68.8487 135.96 69.1769 134.759 69.1769ZM134.856 67.9522C137.241 67.9522 138.433 65.8151 138.433 61.5407C138.433 59.4596 138.161 57.8587 137.617 56.7381C137.089 55.6175 136.192 55.0572 134.928 55.0572C133.695 55.0572 132.782 55.5935 132.19 56.6661C131.598 57.7227 131.302 59.2435 131.302 61.2286C131.302 63.2617 131.582 64.8946 132.142 66.1272C132.718 67.3439 133.623 67.9522 134.856 67.9522ZM150.19 69.1769C148.141 69.1769 146.604 68.4725 145.579 67.0637C144.571 65.639 144.066 63.806 144.066 61.5648C144.066 59.9959 144.355 58.6272 144.931 57.4585C145.507 56.2739 146.292 55.3694 147.284 54.745C148.277 54.1207 149.365 53.8085 150.55 53.8085C152.631 53.8085 154.152 54.4809 155.112 55.8256C156.073 57.1544 156.553 58.9793 156.553 61.3006C156.553 62.8535 156.273 64.2302 155.713 65.4309C155.168 66.6155 154.408 67.536 153.432 68.1924C152.471 68.8487 151.39 69.1769 150.19 69.1769ZM150.286 67.9522C152.671 67.9522 153.864 65.8151 153.864 61.5407C153.864 59.4596 153.592 57.8587 153.047 56.7381C152.519 55.6175 151.623 55.0572 150.358 55.0572C149.125 55.0572 148.213 55.5935 147.62 56.6661C147.028 57.7227 146.732 59.2435 146.732 61.2286C146.732 63.2617 147.012 64.8946 147.572 66.1272C148.149 67.3439 149.053 67.9522 150.286 67.9522ZM171.318 69.1769C169.269 69.1769 167.733 68.4725 166.708 67.0637C165.699 65.639 165.195 63.806 165.195 61.5648C165.195 59.9959 165.483 58.6272 166.06 57.4585C166.636 56.2739 167.42 55.3694 168.413 54.745C169.405 54.1207 170.494 53.8085 171.679 53.8085C173.76 53.8085 175.281 54.4809 176.241 55.8256C177.202 57.1544 177.682 58.9793 177.682 61.3006C177.682 62.8535 177.402 64.2302 176.841 65.4309C176.297 66.6155 175.537 67.536 174.56 68.1924C173.6 68.8487 172.519 69.1769 171.318 69.1769ZM171.415 67.9522C173.8 67.9522 174.992 65.8151 174.992 61.5407C174.992 59.4596 174.72 57.8587 174.176 56.7381C173.648 55.6175 172.751 55.0572 171.487 55.0572C170.254 55.0572 169.341 55.5935 168.749 56.6661C168.157 57.7227 167.861 59.2435 167.861 61.2286C167.861 63.2617 168.141 64.8946 168.701 66.1272C169.277 67.3439 170.182 67.9522 171.415 67.9522ZM186.749 69.1769C184.7 69.1769 183.163 68.4725 182.138 67.0637C181.13 65.639 180.625 63.806 180.625 61.5648C180.625 59.9959 180.914 58.6272 181.49 57.4585C182.066 56.2739 182.851 55.3694 183.843 54.745C184.836 54.1207 185.924 53.8085 187.109 53.8085C189.19 53.8085 190.711 54.4809 191.671 55.8256C192.632 57.1544 193.112 58.9793 193.112 61.3006C193.112 62.8535 192.832 64.2302 192.272 65.4309C191.727 66.6155 190.967 67.536 189.99 68.1924C189.03 68.8487 187.949 69.1769 186.749 69.1769ZM186.845 67.9522C189.23 67.9522 190.423 65.8151 190.423 61.5407C190.423 59.4596 190.151 57.8587 189.606 56.7381C189.078 55.6175 188.182 55.0572 186.917 55.0572C185.684 55.0572 184.772 55.5935 184.179 56.6661C183.587 57.7227 183.291 59.2435 183.291 61.2286C183.291 63.2617 183.571 64.8946 184.131 66.1272C184.708 67.3439 185.612 67.9522 186.845 67.9522ZM202.179 69.1769C200.13 69.1769 198.593 68.4725 197.568 67.0637C196.56 65.639 196.056 63.806 196.056 61.5648C196.056 59.9959 196.344 58.6272 196.92 57.4585C197.496 56.2739 198.281 55.3694 199.273 54.745C200.266 54.1207 201.355 53.8085 202.539 53.8085C204.62 53.8085 206.141 54.4809 207.102 55.8256C208.062 57.1544 208.542 58.9793 208.542 61.3006C208.542 62.8535 208.262 64.2302 207.702 65.4309C207.158 66.6155 206.397 67.536 205.421 68.1924C204.46 68.8487 203.38 69.1769 202.179 69.1769ZM202.275 67.9522C204.66 67.9522 205.853 65.8151 205.853 61.5407C205.853 59.4596 205.581 57.8587 205.037 56.7381C204.508 55.6175 203.612 55.0572 202.347 55.0572C201.114 55.0572 200.202 55.5935 199.61 56.6661C199.017 57.7227 198.721 59.2435 198.721 61.2286C198.721 63.2617 199.001 64.8946 199.562 66.1272C200.138 67.3439 201.042 67.9522 202.275 67.9522ZM214.512 56.57C214.175 56.6981 213.647 56.8502 212.927 57.0263C212.206 57.2024 211.622 57.3224 211.174 57.3865L210.934 56.0417C211.75 55.8657 212.583 55.5695 213.431 55.1533C214.295 54.737 215.016 54.2808 215.592 53.7845H215.616L217.081 54.0246V67.568L220.059 67.7841V68.9608H211.414V67.7841L214.512 67.568V56.57Z" fill="#210B01"/>
</svg>
